<svg xmlns="http://www.w3.org/2000/svg" width="299.988" height="480.109" viewBox="0 0 468 749">
  <defs>
    <style>
      .cls-1 {
        fill: #f44336;
      }

      .cls-1, .cls-2, .cls-3, .cls-4 {
        fill-rule: evenodd;
      }

      .cls-1, .cls-2, .cls-4 {
        opacity: 0.7;
      }

      .cls-2 {
        fill: #2196f3;
      }

      .cls-4 {
        fill: #424242;
      }
    </style>
  </defs>
  <path id="Polygone_1" data-name="Polygone 1" class="cls-1" d="M466.934,354.653l-149.171,85.1L167.709,353.124l-0.883-171.738L316,96.282l150.054,86.634Z"/>
  <path id="Polygone_1-2" data-name="Polygone 1" class="cls-2" d="M301.434,259.859l-149.171,85.1L2.209,258.33,1.326,86.592,150.5,1.488,300.551,88.121Z"/>
  <path id="NOVA" class="cls-3" d="M134.818,632.626L110.6,589.951v22.46l24.219,42.579h11.914V583.017H134.818v49.609ZM106.6,654.99V583.017H94.681V654.99H106.6Zm58.643-20.9a33.805,33.805,0,0,0,5.859,11.377,25.779,25.779,0,0,0,8.936,7.129,29.957,29.957,0,0,0,11.132,2.881V645.81a14.726,14.726,0,0,1-6.152-2,15.671,15.671,0,0,1-5.127-5.029,27.134,27.134,0,0,1-3.467-8.252,51.967,51.967,0,0,1,0-23.682,26.569,26.569,0,0,1,3.418-8.2,15.073,15.073,0,0,1,5.078-4.883,16.477,16.477,0,0,1,6.25-2.051v-9.765a29.7,29.7,0,0,0-11.181,2.881,25.949,25.949,0,0,0-8.887,7.128,33.89,33.89,0,0,0-5.859,11.329A57.553,57.553,0,0,0,165.238,634.091Zm29.834-42.48a14.741,14.741,0,0,1,6.152,2,15.85,15.85,0,0,1,5.127,4.98,26.527,26.527,0,0,1,3.467,8.2,52.18,52.18,0,0,1,0,23.731,27.342,27.342,0,0,1-3.418,8.2,15.385,15.385,0,0,1-5.078,4.98,15.985,15.985,0,0,1-6.25,2.1v9.668A29.319,29.319,0,0,0,206.2,652.6a26.1,26.1,0,0,0,8.838-7.129,34.518,34.518,0,0,0,5.909-11.377,56.315,56.315,0,0,0,0-30.81,34.614,34.614,0,0,0-5.909-11.329,26.507,26.507,0,0,0-8.886-7.177,27.783,27.783,0,0,0-11.084-2.832v9.668Zm63.769,63.769h6.152V639.462l-15.136-56.445H236.478ZM269,636.337V655.38h5.079l23.437-72.363H284.232Zm77.149-53.222H334.525l-25.2,71.875h12.207l18.848-53.907,18.652,53.907h12.11Zm-12.4,49.023-2.734,7.91h18.652l-2.832-7.91H333.743Z"/>
  <path id="Amberdata_" data-name="Amberdata " class="cls-3" d="M113.929,711.4h-5.811l-12.6,35.937h6.1l9.424-26.953,9.326,26.953h6.055Zm-6.2,24.512-1.367,3.955h9.326l-1.416-3.955h-6.543ZM133.7,719.794v27.539h5.957V722.626l-0.634-2.832H133.7Zm25.831,0.147a13.2,13.2,0,0,0-2.686,1.22v3.858a9.023,9.023,0,0,1,2.588-.83,14.716,14.716,0,0,1,1.465-.147,2.761,2.761,0,0,1,2.026.659,3.841,3.841,0,0,1,.952,1.832,11.8,11.8,0,0,1,.318,2.661q0.024,1.49.024,3.149v14.99h5.859v-18.75a10.6,10.6,0,0,0-.61-3.637,8.751,8.751,0,0,0-1.709-2.906,7.65,7.65,0,0,0-2.563-1.88,7.538,7.538,0,0,0-3.125-.659A8.323,8.323,0,0,0,159.535,719.941Zm-8.912.586a7.209,7.209,0,0,0-3.784-.928,8.514,8.514,0,0,0-2.661.439,13.043,13.043,0,0,0-2.515,1.123v3.858a9.343,9.343,0,0,1,2.271-.757,10.136,10.136,0,0,1,1.733-.22,2.777,2.777,0,0,1,2,.659,3.731,3.731,0,0,1,.977,1.832,11.017,11.017,0,0,1,.293,2.661v18.139h5.908V731.855q0-1.269.024-2.417t-0.048-2.222a10.95,10.95,0,0,0-.342-2.075,6.319,6.319,0,0,0-.855-1.88A11.81,11.81,0,0,0,150.623,720.527Zm27.857,26.806H184.1q0.048-.829.147-1.709t0.146-1.562V709.394H178.48v37.939Zm22.241-23.193a11.546,11.546,0,0,0-2.637-2.686,9.518,9.518,0,0,0-3.1-1.464,12.754,12.754,0,0,0-3.272-.44,11.676,11.676,0,0,0-2.832.342,9.955,9.955,0,0,0-2.49.976v5.225a5.8,5.8,0,0,1,1.88-1.489,5.205,5.205,0,0,1,2.319-.513,4.652,4.652,0,0,1,2.637.781,6.63,6.63,0,0,1,1.977,2.1,11.6,11.6,0,0,1,1.27,3.027,13.755,13.755,0,0,1,.464,3.614,12.676,12.676,0,0,1-.513,3.662,10.548,10.548,0,0,1-1.367,2.954,6.773,6.773,0,0,1-2.051,1.977,4.99,4.99,0,0,1-2.661.733,4.624,4.624,0,0,1-2.222-.537,6.2,6.2,0,0,1-1.733-1.367v5.078a9.6,9.6,0,0,0,2.686,1.074,13.45,13.45,0,0,0,3.271.39,9.189,9.189,0,0,0,4.761-1.2,10.276,10.276,0,0,0,3.369-3.222,14.936,14.936,0,0,0,2-4.664,22.274,22.274,0,0,0,.659-5.419,19.5,19.5,0,0,0-.586-4.932A12.273,12.273,0,0,0,200.721,724.14Zm21.851,0a5.542,5.542,0,0,1,2.392.83,7.733,7.733,0,0,1,1.88,1.685,7.378,7.378,0,0,1,1.221,2.172,7.284,7.284,0,0,1,.415,2.442H217.2v4.3h16.748a19.009,19.009,0,0,0,.146-2.344,15.5,15.5,0,0,0-.806-4.98,13.451,13.451,0,0,0-2.319-4.249,12.352,12.352,0,0,0-3.638-3.027,12.045,12.045,0,0,0-4.76-1.416v4.59Zm-3.687,17.895a7.126,7.126,0,0,1-2.417-1.9,7.757,7.757,0,0,1-1.44-2.832,12.9,12.9,0,0,1-.464-3.54,15.177,15.177,0,0,1,.268-2.588,12.24,12.24,0,0,1,.928-2.954,8.34,8.34,0,0,1,1.831-2.563,5.728,5.728,0,0,1,2.979-1.465V719.5a10.234,10.234,0,0,0-4.468,1.319,13.05,13.05,0,0,0-3.638,3.051A14.5,14.5,0,0,0,210,728.242a15.348,15.348,0,0,0-.9,5.273,15.083,15.083,0,0,0,.977,5.469,14.708,14.708,0,0,0,2.636,4.443,12,12,0,0,0,4,3,11.711,11.711,0,0,0,5.03,1.1,12.7,12.7,0,0,0,5.468-1.026,10.738,10.738,0,0,0,3.76-3.027l-2.148-3.272a6.781,6.781,0,0,1-1.587,1.172,12.489,12.489,0,0,1-1.807.806,9.319,9.319,0,0,1-1.709.439,9.173,9.173,0,0,1-1.343.122A7.839,7.839,0,0,1,218.885,742.035ZM242.2,719.794v27.539h5.908V722.626l-0.635-2.832H242.2Zm7.91,6.2a11.769,11.769,0,0,1,2.075-.512,14.1,14.1,0,0,1,2.173-.171,13.51,13.51,0,0,1,3.32.439V719.6a23.168,23.168,0,0,0-4.639.366,10.449,10.449,0,0,0-2.929,1.05V726Zm30.859-16.6v34.668l0.342,3.271h5.615V709.394H280.97ZM263.1,739.35a13.112,13.112,0,0,0,2.734,5.2,8.578,8.578,0,0,0,3.345,2.319,10.794,10.794,0,0,0,3.833.708,12.788,12.788,0,0,0,5.957-1.464v-5.078a5.182,5.182,0,0,1-4.053,1.9,4.9,4.9,0,0,1-2.612-.733,6.4,6.4,0,0,1-2.026-2,10.879,10.879,0,0,1-1.319-2.954,13.031,13.031,0,0,1-.488-3.637,14.66,14.66,0,0,1,.44-3.662,11.014,11.014,0,0,1,1.245-3.028,6.377,6.377,0,0,1,1.977-2.075,5.157,5.157,0,0,1,4.981-.22,7.065,7.065,0,0,1,1.855,1.416v-5.176a9.161,9.161,0,0,0-2.441-.976,11.892,11.892,0,0,0-2.881-.342,12.042,12.042,0,0,0-3.98.708,9.993,9.993,0,0,0-3.686,2.319,12.081,12.081,0,0,0-2.71,4.2,17.051,17.051,0,0,0-1.05,6.4A22.559,22.559,0,0,0,263.1,739.35Zm37.573-2.881a4.364,4.364,0,0,1,1.538-1.538,6.159,6.159,0,0,1,2-.732,11.488,11.488,0,0,1,2.051-.2h1.074v-3.467h-2.148a14.769,14.769,0,0,0-3.858.513,10.625,10.625,0,0,0-3.393,1.563A8.414,8.414,0,0,0,295.5,735.3a7.593,7.593,0,0,0-.952,3.882,10.474,10.474,0,0,0,.659,3.955,6.492,6.492,0,0,0,1.832,2.588,7.3,7.3,0,0,0,2.709,1.416,11.591,11.591,0,0,0,3.2.439,2.948,2.948,0,0,0,.634-0.048v-3.955a3.822,3.822,0,0,1-2.612-1.27,4.994,4.994,0,0,1-.9-3.271A4.862,4.862,0,0,1,300.672,736.469Zm14.575,2.319v-6.347q0-1.708-.122-3.443a27.254,27.254,0,0,0-.464-3.442,7.03,7.03,0,0,0-1.2-2.856,6.905,6.905,0,0,0-2-1.832,8.244,8.244,0,0,0-2.539-.976,13.852,13.852,0,0,0-2.856-.293,17.448,17.448,0,0,0-3.1.269,18.414,18.414,0,0,0-2.759.708,13.11,13.11,0,0,0-2.246,1,6.1,6.1,0,0,0-1.465,1.1l2.2,3.369q0.292-.243.9-0.683a8.285,8.285,0,0,1,1.416-.806,12.465,12.465,0,0,1,1.758-.635,7.473,7.473,0,0,1,2.026-.268,10.47,10.47,0,0,1,2.027.171,2.549,2.549,0,0,1,1.44.83,4.178,4.178,0,0,1,.83,2.075,23.43,23.43,0,0,1,.244,3.808v10.3a7.291,7.291,0,0,1-1.636,1.685,5.337,5.337,0,0,1-2.124.952v3.711a10.272,10.272,0,0,0,3.2-1.392,4.83,4.83,0,0,0,1.928-2.173,5.184,5.184,0,0,0,.708,1.441,6,6,0,0,0,1.123,1.2,5.45,5.45,0,0,0,1.368.83,3.5,3.5,0,0,0,1.342.293l1.563-3.271a1.567,1.567,0,0,1-.855-0.83,5.315,5.315,0,0,1-.463-1.416,12.63,12.63,0,0,1-.2-1.539q-0.05-.756-0.049-1.147v-0.391Zm17.188-14.99h4.394v-4h-4.394v-7.812h-5.908v7.812h-3.614v4h3.614v14.844q0,0.732.122,2.051a12.036,12.036,0,0,0,.586,2.71,8.074,8.074,0,0,0,1.391,2.539,4.106,4.106,0,0,0,2.588,1.44,11.614,11.614,0,0,0,1.294.147q0.756,0.048,1.489.048t1.49-.024q0.756-.026,1.294-0.073c0.422-.033.846-0.082,1.269-0.147V743.72a17.432,17.432,0,0,1-2.124-.122,4.5,4.5,0,0,1-1.807-.61,3.215,3.215,0,0,1-1.245-1.416,6.173,6.173,0,0,1-.439-2.588V723.8Zm17.944,12.671a4.364,4.364,0,0,1,1.538-1.538,6.159,6.159,0,0,1,2-.732,11.5,11.5,0,0,1,2.051-.2h1.074v-3.467H354.9a14.769,14.769,0,0,0-3.858.513,10.625,10.625,0,0,0-3.393,1.563A8.426,8.426,0,0,0,345.2,735.3a7.593,7.593,0,0,0-.952,3.882,10.474,10.474,0,0,0,.659,3.955,6.492,6.492,0,0,0,1.832,2.588,7.3,7.3,0,0,0,2.709,1.416,11.591,11.591,0,0,0,3.2.439,2.965,2.965,0,0,0,.635-0.048v-3.955a3.822,3.822,0,0,1-2.613-1.27,4.994,4.994,0,0,1-.9-3.271A4.862,4.862,0,0,1,350.379,736.469Zm14.575,2.319v-6.347q0-1.708-.122-3.443a27.254,27.254,0,0,0-.464-3.442,7.03,7.03,0,0,0-1.2-2.856,6.905,6.905,0,0,0-2-1.832,8.244,8.244,0,0,0-2.539-.976,13.852,13.852,0,0,0-2.856-.293,17.456,17.456,0,0,0-3.1.269,18.414,18.414,0,0,0-2.759.708,13.145,13.145,0,0,0-2.246,1,6.1,6.1,0,0,0-1.465,1.1l2.2,3.369q0.292-.243.9-0.683a8.285,8.285,0,0,1,1.416-.806,12.465,12.465,0,0,1,1.758-.635,7.473,7.473,0,0,1,2.026-.268,10.47,10.47,0,0,1,2.027.171,2.549,2.549,0,0,1,1.44.83,4.178,4.178,0,0,1,.83,2.075,23.43,23.43,0,0,1,.244,3.808v10.3a7.291,7.291,0,0,1-1.636,1.685,5.337,5.337,0,0,1-2.124.952v3.711a10.272,10.272,0,0,0,3.2-1.392,4.83,4.83,0,0,0,1.928-2.173,5.184,5.184,0,0,0,.708,1.441,6,6,0,0,0,1.123,1.2,5.45,5.45,0,0,0,1.368.83,3.5,3.5,0,0,0,1.342.293l1.563-3.271a1.567,1.567,0,0,1-.855-0.83,5.315,5.315,0,0,1-.463-1.416,12.63,12.63,0,0,1-.2-1.539q-0.049-.756-0.049-1.147v-0.391Z"/>
  <path id="Polygone_1-3" data-name="Polygone 1" class="cls-4" d="M302.934,448.314l-149.171,85.1L3.709,446.784,2.826,275.046,152,189.942l150.054,86.634Z"/>
</svg>
