<svg xmlns="http://www.w3.org/2000/svg" width="299.988" height="480.109" viewBox="0 0 468 749">
  <defs>
    <style>
      .cls-1 {
        fill: #f44336;
      }

      .cls-1, .cls-2, .cls-3, .cls-4 {
        fill-rule: evenodd;
      }

      .cls-1, .cls-2, .cls-4 {
        opacity: 0.7;
      }

      .cls-2 {
        fill: #2196f3;
      }

      .cls-4 {
        fill: #424242;
      }
    </style>
  </defs>
  <path id="Polygone_1" data-name="Polygone 1" class="cls-1" d="M466.934,354.653l-149.171,85.1L167.709,353.124l-0.883-171.738L316,96.282l150.054,86.634Z"/>
  <path id="Polygone_1-2" data-name="Polygone 1" class="cls-2" d="M301.434,259.859l-149.171,85.1L2.209,258.33,1.326,86.592,150.5,1.488,300.551,88.121Z"/>
  <path id="NOVA" class="cls-3" d="M134.818,632.626L110.6,589.951v22.46l24.219,42.579h11.914V583.017H134.818v49.609ZM106.6,654.99V583.017H94.681V654.99H106.6Zm58.643-20.9a33.805,33.805,0,0,0,5.859,11.377,25.779,25.779,0,0,0,8.936,7.129,29.957,29.957,0,0,0,11.132,2.881V645.81a14.726,14.726,0,0,1-6.152-2,15.671,15.671,0,0,1-5.127-5.029,27.134,27.134,0,0,1-3.467-8.252,51.967,51.967,0,0,1,0-23.682,26.569,26.569,0,0,1,3.418-8.2,15.073,15.073,0,0,1,5.078-4.883,16.477,16.477,0,0,1,6.25-2.051v-9.765a29.7,29.7,0,0,0-11.181,2.881,25.949,25.949,0,0,0-8.887,7.128,33.89,33.89,0,0,0-5.859,11.329A57.553,57.553,0,0,0,165.238,634.091Zm29.834-42.48a14.741,14.741,0,0,1,6.152,2,15.85,15.85,0,0,1,5.127,4.98,26.527,26.527,0,0,1,3.467,8.2,52.18,52.18,0,0,1,0,23.731,27.342,27.342,0,0,1-3.418,8.2,15.385,15.385,0,0,1-5.078,4.98,15.985,15.985,0,0,1-6.25,2.1v9.668A29.319,29.319,0,0,0,206.2,652.6a26.1,26.1,0,0,0,8.838-7.129,34.518,34.518,0,0,0,5.909-11.377,56.315,56.315,0,0,0,0-30.81,34.614,34.614,0,0,0-5.909-11.329,26.507,26.507,0,0,0-8.886-7.177,27.783,27.783,0,0,0-11.084-2.832v9.668Zm63.769,63.769h6.152V639.462l-15.136-56.445H236.478ZM269,636.337V655.38h5.079l23.437-72.363H284.232Zm77.149-53.222H334.525l-25.2,71.875h12.207l18.848-53.907,18.652,53.907h12.11Zm-12.4,49.023-2.734,7.91h18.652l-2.832-7.91H333.743Z"/>
  <path id="HomePod_Sounds" data-name="HomePod Sounds" class="cls-3" d="M42.005,711.347v15.771H28.431v4H42.005v16.211h5.859V711.347H42.005ZM20.472,747.333h5.957V711.347H20.472v35.986Zm49.121-23.095a5.149,5.149,0,0,1,2.295,1.074,7.466,7.466,0,0,1,1.758,2.1,10.338,10.338,0,0,1,1.1,2.857,15.071,15.071,0,0,1,.366,3.393,11.561,11.561,0,0,1-1.538,6.1,6.174,6.174,0,0,1-3.979,3.076v4.688a12.474,12.474,0,0,0,4.785-1.319,11.593,11.593,0,0,0,3.711-2.954,13.742,13.742,0,0,0,2.368-4.3,16.078,16.078,0,0,0,.854-5.3,16.735,16.735,0,0,0-.83-5.322,14.22,14.22,0,0,0-2.319-4.37,11.338,11.338,0,0,0-3.687-3.027,11.8,11.8,0,0,0-4.883-1.294v4.59Zm-12.817,14.6a13.244,13.244,0,0,0,2.319,4.346,11.812,11.812,0,0,0,8.5,4.346v-4.688a4.578,4.578,0,0,1-2.27-1.025,6.975,6.975,0,0,1-1.684-2.1,11.321,11.321,0,0,1-1.05-2.881,15.381,15.381,0,0,1-.366-3.418,12.019,12.019,0,0,1,1.465-6.1,5.939,5.939,0,0,1,3.906-3.076V719.7a12.687,12.687,0,0,0-4.736,1.367,12.055,12.055,0,0,0-3.686,2.954A13.15,13.15,0,0,0,56.8,728.29a16.271,16.271,0,0,0-.83,5.274A17.026,17.026,0,0,0,56.776,738.837Zm32.2-19.043v27.539h5.957V722.626L94.3,719.794H88.978Zm25.83,0.147a13.2,13.2,0,0,0-2.686,1.22v3.858a9.023,9.023,0,0,1,2.588-.83q1.124-.147,1.465-0.147a2.761,2.761,0,0,1,2.026.659,3.85,3.85,0,0,1,.953,1.832,11.865,11.865,0,0,1,.317,2.661q0.024,1.49.024,3.149v14.99h5.86v-18.75a10.6,10.6,0,0,0-.611-3.637,8.734,8.734,0,0,0-1.709-2.906,7.64,7.64,0,0,0-2.563-1.88,7.538,7.538,0,0,0-3.125-.659A8.333,8.333,0,0,0,114.808,719.941Zm-8.911.586a7.212,7.212,0,0,0-3.784-.928,8.515,8.515,0,0,0-2.662.439,13.029,13.029,0,0,0-2.515,1.123v3.858a9.329,9.329,0,0,1,2.271-.757,10.135,10.135,0,0,1,1.734-.22,2.778,2.778,0,0,1,2,.659,3.738,3.738,0,0,1,.976,1.832,10.967,10.967,0,0,1,.293,2.661v18.139h5.908V731.855q0-1.269.025-2.417t-0.049-2.222a10.871,10.871,0,0,0-.342-2.075,6.342,6.342,0,0,0-.854-1.88A11.843,11.843,0,0,0,105.9,720.527Zm40.649,3.613a5.551,5.551,0,0,1,2.393.83,7.751,7.751,0,0,1,1.88,1.685,7.375,7.375,0,0,1,1.22,2.172,7.259,7.259,0,0,1,.415,2.442H141.175v4.3h16.748a18.817,18.817,0,0,0,.147-2.344,15.5,15.5,0,0,0-.806-4.98,13.471,13.471,0,0,0-2.319-4.249,12.365,12.365,0,0,0-3.638-3.027,12.045,12.045,0,0,0-4.761-1.416v4.59Zm-3.686,17.895a7.107,7.107,0,0,1-2.417-1.9A7.744,7.744,0,0,1,139,737.3a12.936,12.936,0,0,1-.464-3.54,15.19,15.19,0,0,1,.269-2.588,12.152,12.152,0,0,1,.928-2.954,8.323,8.323,0,0,1,1.831-2.563,5.729,5.729,0,0,1,2.978-1.465V719.5a10.241,10.241,0,0,0-4.468,1.319,13.046,13.046,0,0,0-3.637,3.051,14.5,14.5,0,0,0-2.466,4.371,15.324,15.324,0,0,0-.9,5.273,15.1,15.1,0,0,0,.976,5.469,14.731,14.731,0,0,0,2.637,4.443,11.982,11.982,0,0,0,4,3,11.707,11.707,0,0,0,5.029,1.1,12.708,12.708,0,0,0,5.469-1.026,10.747,10.747,0,0,0,3.76-3.027L152.8,740.2a6.76,6.76,0,0,1-1.587,1.172,12.431,12.431,0,0,1-1.806.806,9.319,9.319,0,0,1-1.709.439,9.173,9.173,0,0,1-1.343.122A7.836,7.836,0,0,1,142.86,742.035Zm23.559,5.3h5.86V711.347h-5.86v35.986Zm7.862-35.986v4.443h2.392a7.893,7.893,0,0,1,3.613.708,5.922,5.922,0,0,1,2.124,1.758,5.819,5.819,0,0,1,1,2.2,9.884,9.884,0,0,1,.245,2.027,10.949,10.949,0,0,1-.538,3.686,5.854,5.854,0,0,1-1.416,2.32,5.362,5.362,0,0,1-1.928,1.2,6.422,6.422,0,0,1-2.124.366h-3.369v4.3h2.343a15.4,15.4,0,0,0,5.176-.83,11.594,11.594,0,0,0,4-2.344,10.391,10.391,0,0,0,2.588-3.735,12.753,12.753,0,0,0,.928-4.956,9.818,9.818,0,0,0-1.1-4.663,11.487,11.487,0,0,0-2.881-3.54,12.285,12.285,0,0,0-4.028-2.2,14.575,14.575,0,0,0-4.541-.732h-2.49Zm34.375,12.891a5.152,5.152,0,0,1,2.295,1.074,7.47,7.47,0,0,1,1.757,2.1,10.31,10.31,0,0,1,1.1,2.857,15.077,15.077,0,0,1,.366,3.393,11.565,11.565,0,0,1-1.538,6.1,6.172,6.172,0,0,1-3.979,3.076v4.688a12.474,12.474,0,0,0,4.785-1.319,11.6,11.6,0,0,0,3.711-2.954,13.754,13.754,0,0,0,2.368-4.3,16.081,16.081,0,0,0,.854-5.3,16.737,16.737,0,0,0-.83-5.322,14.213,14.213,0,0,0-2.319-4.37,11.336,11.336,0,0,0-3.687-3.027,11.8,11.8,0,0,0-4.882-1.294v4.59Zm-12.818,14.6a13.232,13.232,0,0,0,2.32,4.346,11.812,11.812,0,0,0,8.5,4.346v-4.688a4.58,4.58,0,0,1-2.271-1.025,6.975,6.975,0,0,1-1.684-2.1,11.291,11.291,0,0,1-1.05-2.881,15.393,15.393,0,0,1-.366-3.418,12.025,12.025,0,0,1,1.464-6.1,5.941,5.941,0,0,1,3.907-3.076V719.7a12.688,12.688,0,0,0-4.737,1.367,12.058,12.058,0,0,0-3.686,2.954,13.135,13.135,0,0,0-2.368,4.272,16.268,16.268,0,0,0-.83,5.274A17.029,17.029,0,0,0,195.838,738.837Zm49.195-29.443v34.668l0.341,3.271h5.616V709.394h-5.957ZM227.161,739.35a13.1,13.1,0,0,0,2.735,5.2,8.563,8.563,0,0,0,3.345,2.319,10.786,10.786,0,0,0,3.833.708,12.405,12.405,0,0,0,3.247-.415,12.538,12.538,0,0,0,2.71-1.049v-5.078a5.183,5.183,0,0,1-4.053,1.9,4.9,4.9,0,0,1-2.612-.733,6.405,6.405,0,0,1-2.027-2,10.877,10.877,0,0,1-1.318-2.954,12.994,12.994,0,0,1-.488-3.637,14.66,14.66,0,0,1,.439-3.662,11.045,11.045,0,0,1,1.245-3.028,6.369,6.369,0,0,1,1.978-2.075,5.155,5.155,0,0,1,4.98-.22,7.053,7.053,0,0,1,1.856,1.416v-5.176a9.182,9.182,0,0,0-2.442-.976,11.886,11.886,0,0,0-2.881-.342,12.037,12.037,0,0,0-3.979.708,10.005,10.005,0,0,0-3.687,2.319,12.1,12.1,0,0,0-2.71,4.2,17.072,17.072,0,0,0-1.049,6.4A22.6,22.6,0,0,0,227.161,739.35Zm62.7-22.925q0.243-.439.586-1.1t0.732-1.416q0.39-.756.684-1.391a10.051,10.051,0,0,0-3.589-1.294,27.275,27.275,0,0,0-4.37-.464v4.932a12.059,12.059,0,0,1,2.49.049,9.1,9.1,0,0,1,1.611.366,3.9,3.9,0,0,1,.977.464,2.842,2.842,0,0,0,.586.341A4.184,4.184,0,0,0,289.857,716.425Zm-16.284,8.252a10.585,10.585,0,0,0,2.172,2.832,15.312,15.312,0,0,0,2.93,2.124q1.611,0.9,3.223,1.685v-5.567a9.727,9.727,0,0,1-2.588-2.05,4.5,4.5,0,0,1-1.025-3.077,4.445,4.445,0,0,1,1.025-2.71,5.4,5.4,0,0,1,2.588-1.879v-5.127a12.585,12.585,0,0,0-3.54,1,9.342,9.342,0,0,0-2.93,2.05,9.932,9.932,0,0,0-1.977,3,9.7,9.7,0,0,0-.733,3.858A8.126,8.126,0,0,0,273.573,724.677Zm-1.1,20.264a7.729,7.729,0,0,0,1.977,1.245,13.214,13.214,0,0,0,2.417.806,19.76,19.76,0,0,0,2.515.415q1.245,0.12,2.417.122h0.1V742.89h-0.147a12.3,12.3,0,0,1-2.1-.195,22.023,22.023,0,0,1-2.246-.513q-1.125-.317-2.173-0.684a10.537,10.537,0,0,1-1.734-.756Zm11.426-12.5a12.972,12.972,0,0,1,2.881,2.1,3.844,3.844,0,0,1,1.123,2.832q0,4.347-4,5.323v4.687a11.754,11.754,0,0,0,4-1.221,10.4,10.4,0,0,0,2.954-2.27,10.061,10.061,0,0,0,1.855-3,9.977,9.977,0,0,0-.22-7.666,9.72,9.72,0,0,0-2.246-2.9,14.011,14.011,0,0,0-3.051-2.027q-1.685-.83-3.3-1.562v5.713Zm28.222-8.2a5.147,5.147,0,0,1,2.295,1.074,7.456,7.456,0,0,1,1.758,2.1,10.341,10.341,0,0,1,1.1,2.857,15.077,15.077,0,0,1,.366,3.393,11.565,11.565,0,0,1-1.538,6.1,6.174,6.174,0,0,1-3.98,3.076v4.688a12.479,12.479,0,0,0,4.786-1.319,11.594,11.594,0,0,0,3.71-2.954,13.736,13.736,0,0,0,2.369-4.3,16.081,16.081,0,0,0,.854-5.3,16.737,16.737,0,0,0-.83-5.322,14.235,14.235,0,0,0-2.319-4.37,11.347,11.347,0,0,0-3.687-3.027,11.8,11.8,0,0,0-4.883-1.294v4.59Zm-12.817,14.6a13.249,13.249,0,0,0,2.319,4.346,11.812,11.812,0,0,0,8.5,4.346v-4.688a4.581,4.581,0,0,1-2.27-1.025,6.978,6.978,0,0,1-1.685-2.1,11.328,11.328,0,0,1-1.049-2.881,15.333,15.333,0,0,1-.367-3.418,12.025,12.025,0,0,1,1.465-6.1,5.94,5.94,0,0,1,3.906-3.076V719.7a12.688,12.688,0,0,0-4.736,1.367,12.046,12.046,0,0,0-3.686,2.954,13.156,13.156,0,0,0-2.369,4.272,16.3,16.3,0,0,0-.83,5.274A17.029,17.029,0,0,0,299.305,738.837Zm37.964-19.043h-5.957v15.479q0,1.171.024,2.392a15.035,15.035,0,0,0,.244,2.417,10.179,10.179,0,0,0,.708,2.295,6.317,6.317,0,0,0,1.319,1.929,17.609,17.609,0,0,0,1.465,1.318,12.141,12.141,0,0,0,1.538,1.05,6.4,6.4,0,0,0,1.733.684,9.165,9.165,0,0,0,2.1.219,9.032,9.032,0,0,0,2.954-.512,18.5,18.5,0,0,0,2.759-1.2v-3.613a10.453,10.453,0,0,1-2.246.635,11.869,11.869,0,0,1-1.807.2,4.426,4.426,0,0,1-2.588-.683,4.2,4.2,0,0,1-1.465-1.807,8.65,8.65,0,0,1-.635-2.612q-0.146-1.489-.146-3.2V719.794Zm10.889,0V744.5l0.634,2.832h5.323V719.794h-5.957Zm14.257,0v27.539h5.909V722.577l-0.635-2.783h-5.274Zm17.481,0.611a7.128,7.128,0,0,0-3.711-.9,9.909,9.909,0,0,0-3,.489,18.065,18.065,0,0,0-2.856,1.171v3.76a9.838,9.838,0,0,1,2.221-.708,10.326,10.326,0,0,1,1.831-.22,4.407,4.407,0,0,1,2.588.66,4.474,4.474,0,0,1,1.465,1.831,8.352,8.352,0,0,1,.684,2.685q0.145,1.515.146,3.174v14.99h5.957V731.855q0-1.172-.049-2.393a17.318,17.318,0,0,0-.268-2.417,11.048,11.048,0,0,0-.684-2.295,6.028,6.028,0,0,0-1.294-1.928A15.778,15.778,0,0,0,379.9,720.405Zm30.469-11.011v34.668l0.341,3.271h5.616V709.394h-5.957ZM392.493,739.35a13.1,13.1,0,0,0,2.735,5.2,8.563,8.563,0,0,0,3.345,2.319,10.786,10.786,0,0,0,3.833.708,12.405,12.405,0,0,0,3.247-.415,12.538,12.538,0,0,0,2.71-1.049v-5.078a5.183,5.183,0,0,1-4.053,1.9,4.9,4.9,0,0,1-2.612-.733,6.405,6.405,0,0,1-2.027-2,10.877,10.877,0,0,1-1.318-2.954,12.994,12.994,0,0,1-.488-3.637,14.66,14.66,0,0,1,.439-3.662,11.045,11.045,0,0,1,1.245-3.028,6.369,6.369,0,0,1,1.978-2.075,5.155,5.155,0,0,1,4.98-.22,7.053,7.053,0,0,1,1.856,1.416v-5.176a9.182,9.182,0,0,0-2.442-.976,11.88,11.88,0,0,0-2.881-.342,12.037,12.037,0,0,0-3.979.708,10.005,10.005,0,0,0-3.687,2.319,12.1,12.1,0,0,0-2.71,4.2,17.072,17.072,0,0,0-1.049,6.4A22.6,22.6,0,0,0,392.493,739.35Zm32.837-7.69a13.122,13.122,0,0,0,3.882,2.88q0.829,0.392,1.685.708t1.684,0.562v-5.225a7.16,7.16,0,0,1-1.928-1.245,2.449,2.449,0,0,1-.757-1.88,3.158,3.158,0,0,1,.708-2.2,3.458,3.458,0,0,1,1.977-1.025v-4.883a11.3,11.3,0,0,0-3.2.757,9.671,9.671,0,0,0-2.759,1.66,7.35,7.35,0,0,0-1.9,2.539,7.925,7.925,0,0,0-.684,3.345A5.954,5.954,0,0,0,425.33,731.66Zm16.919-10.108a13.288,13.288,0,0,0-3.613-1.636,18.344,18.344,0,0,0-4.053-.61v4.834a18.976,18.976,0,0,1,2.954.439,11.853,11.853,0,0,1,2.808,1.026Zm-18.115,23.584a15.3,15.3,0,0,0,2.149,1.27,11.785,11.785,0,0,0,2.026.756,10.779,10.779,0,0,0,2.026.342q1.026,0.073,2.246.073v-4.541h-0.244a8.531,8.531,0,0,1-3.393-.585,13.347,13.347,0,0,1-2.32-1.27Zm10.449-8.594a10.618,10.618,0,0,1,2.466,1.245,2.288,2.288,0,0,1,1,1.978,2.507,2.507,0,0,1-.9,2.026,5.4,5.4,0,0,1-2.564,1.05v4.639a13.848,13.848,0,0,0,3.369-.781,8.494,8.494,0,0,0,2.71-1.612,7.762,7.762,0,0,0,1.831-2.441,7.555,7.555,0,0,0,.684-3.32,6.038,6.038,0,0,0-.806-3.248,7.462,7.462,0,0,0-2.05-2.172,12.722,12.722,0,0,0-2.759-1.465q-1.515-.587-2.979-1.074v5.175Z"/>
  <path id="Polygone_1-3" data-name="Polygone 1" class="cls-4" d="M302.934,448.314l-149.171,85.1L3.709,446.784,2.826,275.046,152,189.942l150.054,86.634Z"/>
</svg>
